<svg width="20" height="16" viewBox="0 0 20 16" fill="none" xmlns="http://www.w3.org/2000/svg">
<path fill-rule="evenodd" clip-rule="evenodd" d="M9.32285 15.8806L10.0037 14L10.709 15.8716C10.2628 16.0396 9.77122 16.0428 9.32285 15.8806ZM8.54692 3.12301C7.76724 2.54309 6.73642 2 5.61016 2C3.08388 2 1.60107 4 2.09534 6.74519C2.94158 11.4452 10.0037 14 10.0037 14C9.32285 15.8806 9.32231 15.8804 9.32175 15.8802L9.31749 15.8787L9.30953 15.8758L9.28597 15.8671C9.26692 15.86 9.24122 15.8503 9.2093 15.8381C9.14546 15.8137 9.05659 15.779 8.94599 15.7342C8.72505 15.6445 8.41594 15.5135 8.04551 15.3419C7.30874 15.0004 6.30879 14.4885 5.27001 13.8078C3.30175 12.5181 0.703297 10.3044 0.126249 7.09947C-0.195927 5.31009 0.0901943 3.53226 1.11227 2.15279C2.15641 0.743544 3.78727 0 5.61016 0C7.48099 0 9.01733 0.946 9.94862 1.67693C9.96711 1.69144 9.98546 1.70595 10.0037 1.72045C10.0219 1.70595 10.0402 1.69144 10.0587 1.67693C10.99 0.946 12.5264 0 14.3972 0C18.5049 0 20.5659 3.99583 19.866 7.17504C19.1782 10.2994 16.6301 12.4889 14.6819 13.7859C13.6585 14.4672 12.6789 14.9822 11.9576 15.3268C11.5951 15.4999 11.293 15.6323 11.0772 15.7231C10.9692 15.7685 10.8824 15.8036 10.82 15.8284C10.7888 15.8408 10.7637 15.8506 10.7451 15.8578L10.7221 15.8666L10.7143 15.8696L10.7101 15.8712C10.7096 15.8714 10.709 15.8716 10.0037 14C10.0037 14 16.8854 11.4083 17.912 6.74519C18.4063 4.5 16.9235 2 14.3972 2C13.2709 2 12.2401 2.54309 11.4604 3.12301C10.5673 3.78734 10.0037 4.5 10.0037 4.5C10.0037 4.5 9.44008 3.78734 8.54692 3.12301Z" fill="#F04A4A"/>
</svg>
