<svg width="20" height="20" viewBox="0 0 20 20" fill="none" xmlns="http://www.w3.org/2000/svg">
<path fill-rule="evenodd" clip-rule="evenodd" d="M0.000153687 9.017C-0.00669225 8.61435 0.228661 8.24688 0.597271 8.08469L18.2749 0.306517C18.6524 0.140421 19.0932 0.223104 19.3848 0.514724C19.6764 0.806345 19.7591 1.24708 19.593 1.62457L11.8148 19.3022C11.6526 19.6708 11.2852 19.9062 10.8825 19.8994C10.4798 19.8925 10.1206 19.6448 9.97103 19.2709L7.30177 12.5977L0.628619 9.92848C0.254709 9.77892 0.0069996 9.41966 0.000153687 9.017ZM9.24445 12.0693L10.9434 16.3167L15.6156 5.69814L9.24445 12.0693ZM14.2014 4.28393L7.83023 10.6551L3.58281 8.95609L14.2014 4.28393Z" fill="#1D1D28"/>
</svg>
